<?xml version="1.0" standalone="no"?>
<!DOCTYPE svg PUBLIC "-//W3C//DTD SVG 20010904//EN"
 "http://www.w3.org/TR/2001/REC-SVG-20010904/DTD/svg10.dtd">
<svg version="1.0" xmlns="http://www.w3.org/2000/svg"
 width="475.000000pt" height="475.000000pt" viewBox="0 0 475.000000 475.000000"
 preserveAspectRatio="xMidYMid meet">
<metadata>
Created by potrace 1.11, written by Peter Selinger 2001-2013
</metadata>
<g transform="translate(0.000000,475.000000) scale(0.100000,-0.100000)"
fill="#000000" stroke="none">
<path d="M3006 4522 c-2 -2 -23 -5 -47 -8 -58 -5 -78 -10 -114 -25 -16 -7 -32
-13 -35 -14 -66 -22 -231 -103 -286 -141 -34 -23 -86 -50 -115 -59 -76 -25
-160 -68 -190 -99 -25 -25 -32 -26 -165 -30 -77 -3 -152 -7 -169 -10 -87 -17
-101 -19 -110 -22 -5 -1 -27 -5 -48 -9 -22 -4 -56 -13 -78 -20 -21 -8 -39 -12
-39 -9 0 2 -24 -9 -52 -25 -29 -16 -58 -27 -65 -24 -6 2 -14 -1 -18 -6 -10
-17 -35 -13 -59 9 -29 26 -209 167 -272 211 -68 49 -87 54 -108 30 -23 -25
-13 -76 42 -218 l40 -102 -134 2 -133 2 -31 -43 c-16 -23 -30 -47 -30 -52 0
-6 -3 -10 -7 -10 -8 0 -63 -82 -63 -94 0 -3 11 -6 25 -6 30 0 31 -9 7 -36 -34
-38 -53 -74 -40 -75 7 -1 20 -2 28 -3 20 -1 15 -20 -21 -73 -17 -24 -29 -46
-27 -49 3 -2 17 -5 31 -6 33 -3 34 -6 3 -18 -46 -17 -201 -119 -247 -162 -70
-64 -144 -201 -127 -231 6 -12 5 -17 -4 -17 -9 0 -9 -3 2 -10 11 -7 11 -10 2
-10 -7 0 -10 -5 -7 -11 4 -5 16 -52 26 -102 26 -125 63 -234 102 -298 48 -79
66 -96 113 -110 46 -14 49 -21 60 -134 7 -75 23 -145 45 -192 10 -24 19 -47
19 -53 0 -6 13 -18 29 -28 23 -14 48 -17 122 -15 52 1 114 5 139 9 25 4 59 8
75 10 39 3 96 14 105 19 3 2 17 6 31 9 77 16 147 35 174 48 12 5 30 11 40 13
11 2 21 4 23 5 1 2 5 3 10 5 4 1 15 5 25 10 36 15 34 11 -52 -177 -11 -26 -21
-52 -21 -57 0 -6 -11 -13 -25 -17 -14 -3 -25 -10 -25 -14 0 -5 -22 -24 -49
-42 -113 -77 -213 -172 -243 -229 -20 -40 -58 -128 -56 -132 1 -1 -4 -12 -10
-24 -6 -11 -14 -43 -17 -70 -3 -26 -6 -55 -8 -63 -4 -30 14 -141 30 -177 34
-83 94 -160 157 -200 33 -21 74 -44 89 -51 22 -10 26 -15 18 -30 -13 -25 -26
-31 -403 -179 -121 -47 -170 -80 -183 -123 -4 -14 -6 -25 -5 -25 2 0 -8 -21
-23 -46 -25 -42 -26 -49 -13 -62 21 -21 109 -40 175 -39 229 5 306 14 391 47
50 19 73 28 85 31 6 1 53 21 105 44 114 51 226 123 235 151 7 21 -10 49 -29
49 -15 0 -66 48 -67 63 -2 18 2 62 6 66 2 1 23 5 47 7 56 5 165 39 203 62 l30
19 51 -44 c28 -23 56 -43 61 -43 6 0 16 -7 23 -15 7 -8 24 -21 39 -28 14 -8
47 -26 73 -40 27 -14 48 -24 48 -21 0 2 12 -1 26 -7 15 -5 61 -12 103 -15 42
-4 79 -11 83 -17 17 -27 -36 -97 -129 -172 -141 -113 -144 -118 -144 -203 0
-46 4 -60 21 -74 26 -21 126 -53 195 -62 34 -5 55 -14 66 -28 19 -25 64 -32
204 -31 152 0 271 28 277 66 2 13 13 24 28 29 91 25 115 34 134 49 l21 17 -40
58 c-45 68 -202 228 -292 298 -59 46 -83 83 -83 127 0 9 3 19 8 21 16 7 110
126 137 173 48 85 59 109 62 130 2 11 7 29 13 40 25 52 33 199 16 300 -20 114
-120 241 -261 330 -41 26 -75 51 -76 54 0 3 -3 15 -5 26 -11 46 -15 74 -19
152 -2 45 0 85 4 87 4 3 41 -11 82 -30 151 -73 434 -182 517 -199 32 -7 92 9
92 24 0 4 9 16 19 28 10 11 26 33 35 49 9 16 25 43 36 59 11 17 22 37 26 45
32 81 44 115 44 125 0 7 14 31 30 54 64 88 116 167 132 201 64 136 85 199 104
320 20 120 3 168 -90 266 -38 40 -72 77 -75 81 -3 5 -28 26 -55 48 -46 37 -52
40 -110 38 -65 -3 -69 -3 -131 -21 -57 -16 -60 -15 -61 21 -2 41 -11 93 -23
135 -5 17 -7 32 -4 32 3 0 1 6 -5 13 -6 6 -11 17 -12 22 -7 55 -100 253 -153
325 -21 29 -33 55 -32 73 2 32 -6 39 -47 42 -16 2 -47 17 -68 34 -21 17 -43
31 -49 31 -5 0 -11 4 -13 8 -4 12 -110 61 -193 89 -38 13 -77 26 -85 30 -8 3
-28 7 -43 8 -43 4 -42 11 5 28 147 55 262 69 368 43 95 -23 174 -46 192 -56
10 -6 23 -10 29 -10 10 0 50 -17 225 -95 28 -13 73 -30 101 -38 27 -8 67 -24
89 -35 21 -11 44 -21 49 -22 13 -3 13 -3 136 -44 58 -19 121 -38 140 -41 19
-3 45 -9 59 -14 75 -26 188 -48 288 -56 35 -3 68 -7 72 -10 12 -8 300 -17 300
-10 0 3 -20 35 -45 71 -25 35 -45 67 -45 70 0 3 -26 43 -57 87 -104 149 -270
296 -418 370 -83 41 -319 117 -445 143 -29 6 -369 12 -374 6z m-1669 -1834
c18 -16 40 -28 49 -28 9 0 28 -8 42 -19 21 -14 106 -57 132 -66 103 -35 85
-50 -125 -103 -146 -37 -187 -46 -198 -44 -5 1 -25 -2 -45 -7 -20 -5 -57 -12
-82 -15 -57 -8 -102 -15 -117 -21 -34 -12 -56 39 -68 161 -6 57 -4 61 18 71
34 16 142 118 167 159 12 18 33 39 48 46 26 13 29 11 87 -47 33 -33 75 -72 92
-87z m1367 -83 c27 -49 37 -56 98 -61 77 -6 81 -9 107 -66 13 -29 46 -74 73
-101 42 -40 49 -51 43 -75 -3 -15 -12 -35 -20 -45 -13 -18 -15 -17 -67 4 -123
51 -307 136 -360 166 -31 18 -59 33 -62 33 -6 0 -116 69 -116 73 0 2 11 4 24
5 13 1 45 11 70 22 26 11 51 20 56 20 5 0 21 5 37 11 15 6 30 11 33 11 3 0 16
9 29 19 32 25 33 25 55 -16z"/>
</g>
</svg>
